HIERARCHY
ROOT Hips
{
 OFFSET 0.000000 0.000000 0.000000
 CHANNELS 6 Xposition Yposition Zposition Yrotation Xrotation Zrotation
 JOINT Chest
 {
  OFFSET 0.000000 9.585900 0.002600
  CHANNELS 3 Yrotation Xrotation Zrotation
  JOINT Chest2
  {
   OFFSET 0.000000 9.601200 -0.005300
   CHANNELS 3 Yrotation Xrotation Zrotation
   JOINT Chest3
   {
    OFFSET 0.000000 9.561800 0.000000
    CHANNELS 3 Yrotation Xrotation Zrotation
    JOINT Chest4
    {
     OFFSET 0.000000 9.552100 0.000000
     CHANNELS 3 Yrotation Xrotation Zrotation
     JOINT Neck
     {
      OFFSET 0.000000 14.453000 0.000000
      CHANNELS 3 Yrotation Xrotation Zrotation
      JOINT Head
      {
       OFFSET 0.000000 8.936500 -0.011300
       CHANNELS 3 Yrotation Xrotation Zrotation
       End Site
       {
        OFFSET 0.000000 17.073600 -0.006000
       }
      }
     }
     JOINT RightCollar
     {
      OFFSET -2.921100 9.558500 0.000000
      CHANNELS 3 Yrotation Xrotation Zrotation
      JOINT RightShoulder
      {
       OFFSET -13.519700 0.000000 0.000000
       CHANNELS 3 Yrotation Xrotation Zrotation
       JOINT RightElbow
       {
        OFFSET 0.000000 -29.696600 0.000000
        CHANNELS 3 Yrotation Xrotation Zrotation
        JOINT RightWrist
        {
         OFFSET 0.000000 -24.004700 0.000000
         CHANNELS 3 Yrotation Xrotation Zrotation
         End Site
         {
          OFFSET 0.000000 -17.728500 0.000000
         }
        }
       }
      }
     }
     JOINT LeftCollar
     {
      OFFSET 2.921100 9.558500 0.000000
      CHANNELS 3 Yrotation Xrotation Zrotation
      JOINT LeftShoulder
      {
       OFFSET 13.519700 0.000000 0.000000
       CHANNELS 3 Yrotation Xrotation Zrotation
       JOINT LeftElbow
       {
        OFFSET 0.000000 -29.696600 0.000000
        CHANNELS 3 Yrotation Xrotation Zrotation
        JOINT LeftWrist
        {
         OFFSET 0.000000 -24.004700 0.000000
         CHANNELS 3 Yrotation Xrotation Zrotation
         End Site
         {
          OFFSET 0.000000 -17.728500 0.000000
         }
        }
       }
      }
     }
    }
   }
  }
 }
 JOINT RightHip
 {
  OFFSET -7.771700 -0.012900 -0.001300
  CHANNELS 3 Yrotation Xrotation Zrotation
  JOINT RightKnee
  {
   OFFSET 0.000000 -40.869800 0.001200
   CHANNELS 3 Yrotation Xrotation Zrotation
   JOINT RightAnkle
   {
    OFFSET 0.000000 -39.717900 0.002100
    CHANNELS 3 Yrotation Xrotation Zrotation
    JOINT RightToe
    {
     OFFSET 0.000000 -4.965400 11.033500
     CHANNELS 3 Yrotation Xrotation Zrotation
     End Site
     {
      OFFSET 0.000000 -1.423100 5.872300
     }
    }
   }
  }
 }
 JOINT LeftHip
 {
  OFFSET 7.771700 -0.012900 -0.001300
  CHANNELS 3 Yrotation Xrotation Zrotation
  JOINT LeftKnee
  {
   OFFSET 0.000000 -40.869800 0.001200
   CHANNELS 3 Yrotation Xrotation Zrotation
   JOINT LeftAnkle
   {
    OFFSET 0.000000 -39.717900 0.002100
    CHANNELS 3 Yrotation Xrotation Zrotation
    JOINT LeftToe
    {
     OFFSET 0.000000 -4.965400 11.033500
     CHANNELS 3 Yrotation Xrotation Zrotation
     End Site
     {
      OFFSET 0.000000 -1.423100 5.872300
     }
    }
   }
  }
 }
}
MOTION
Frames: 8
Frame Time: 0.008333
0.000000 85.388000 0.000000 0.000000 -5.767877 0.000000 0.000000 11.653817 0.000000 0.000000 -5.885947 0.000000 0.000000 -0.000000 0.000000 0.000000 -0.000000 0.000000 0.000000 12.528835 0.000000 0.000000 0.711642 0.000000 0.000000 -0.000000 0.000000 0.000000 0.000000 -90.000000 0.000000 -2.309062 0.000000 0.000000 2.309062 0.000000 0.000000 -0.000000 0.000000 0.000000 -0.000000 90.000000 0.000000 -2.309062 0.000000 0.000000 2.309062 0.000000 0.000000 8.520406 0.000000 0.000000 1.905762 0.000000 -0.000000 -4.658285 0.000000 0.000000 -0.000000 0.000000 0.000000 8.520406 0.000000 0.000000 1.905762 0.000000 -0.000000 -4.658285 0.000000 0.000000 -0.000000 0.000000
-135.074213 51.722795 -58.019627 177.462111 -18.729942 -2.749321 -1.341861 11.419815 -0.254046 -0.084056 0.800381 0.040040 -0.168003 1.367110 0.008455 -1.214657 10.525267 0.135949 -2.375911 19.980473 -0.996607 -2.304893 -4.595435 -0.631293 6.875605 15.481485 12.582225 25.870006 -8.995707 -30.724676 139.594513 -55.195313 -179.302651 -1.232399 2.644065 -7.287051 -4.647331 15.238944 -15.481764 -21.978170 -1.793313 33.241363 -123.937518 -58.105107 169.348105 13.813809 2.827558 5.204418 -14.894538 -62.100149 10.930444 -88.633030 84.691623 -96.555216 -3.972483 -9.455166 7.612077 0.138501 -0.508961 0.134289 6.429123 -62.772036 -3.327513 51.824344 86.531537 57.837259 -1.868888 -13.898163 0.358086 0.113896 0.331546 0.088020
-135.082934 51.725417 -58.027847 177.496660 -18.734388 -2.768478 -1.362207 11.429261 -0.224271 -0.086102 0.798414 0.042010 -0.171062 1.368145 0.013257 -1.237036 10.521607 0.167311 -2.380893 19.991981 -1.031518 -2.302479 -4.556828 -0.610262 6.876510 15.493889 12.551996 25.876303 -9.031906 -30.710559 139.471985 -55.153382 -179.212742 -1.209974 2.636833 -7.340705 -4.639265 15.248291 -15.484080 -21.985125 -1.803956 33.264033 -123.920967 -58.094864 169.368870 13.806091 2.756645 5.194505 -14.902081 -62.084232 10.914469 -88.696829 84.689786 -96.624865 -3.967706 -9.466704 7.629603 0.128703 -0.509710 0.129952 6.433437 -62.770806 -3.336281 51.812829 86.546606 57.825851 -1.884666 -13.892454 0.366097 0.150208 0.329009 0.088673
-135.098993 51.728882 -58.041175 177.532882 -18.763300 -2.754140 -1.379406 11.461717 -0.209079 -0.097950 0.798733 0.025583 -0.175079 1.365012 0.017464 -1.257614 10.522007 0.200148 -2.387175 20.002829 -1.067445 -2.285944 -4.464874 -0.560621 6.885112 15.515653 12.563084 25.889808 -9.059390 -30.736649 139.365178 -55.132392 -179.110395 -1.173124 2.609505 -7.424429 -4.633372 15.258930 -15.487015 -21.990232 -1.815877 33.286521 -123.985150 -58.126590 169.456446 13.748713 2.659583 5.187849 -14.833625 -62.053403 10.818300 -88.869561 84.687911 -96.823428 -3.965776 -9.490278 7.678581 0.109150 -0.507552 0.115566 6.504577 -62.739478 -3.395164 52.078647 86.542848 58.044990 -1.925280 -13.888164 0.430090 0.135606 0.317636 0.082994
-135.110693 51.730780 -58.050474 177.587268 -18.765388 -2.781682 -1.415809 11.470812 -0.176313 -0.102934 0.797895 0.022551 -0.177009 1.365659 0.025742 -1.275585 10.521523 0.230720 -2.370607 20.058741 -1.033046 -2.288810 -4.444978 -0.592217 6.890272 15.534510 12.574303 25.903088 -9.084190 -30.764573 139.266925 -55.110051 -179.019768 -1.137166 2.580015 -7.512678 -4.629686 15.268209 -15.487849 -21.995654 -1.833258 33.292947 -123.950521 -58.103243 169.450490 13.736902 2.600868 5.198416 -14.825782 -62.036606 10.774003 -88.890813 84.686300 -96.834760 -3.969829 -9.502763 7.691203 0.112282 -0.504612 0.112546 6.465659 -62.741747 -3.376220 52.306858 86.541516 58.236379 -1.926480 -13.889504 0.465474 0.108503 0.317828 0.080009
-135.123352 51.732213 -58.060127 177.620607 -18.770765 -2.803196 -1.431171 11.482641 -0.142704 -0.113813 0.794500 0.008383 -0.170642 1.370817 0.047044 -1.292802 10.536653 0.299220 -2.382463 20.074143 -1.081269 -2.291029 -4.432138 -0.608022 6.875566 15.536374 12.527035 25.931954 -9.133069 -30.725268 139.041560 -54.995930 -178.863784 -1.126465 2.616789 -7.539718 -4.646237 15.247411 -15.557112 -21.990980 -1.827974 33.337494 -123.833624 -58.042184 169.379010 13.784951 2.579338 5.226436 -14.715474 -62.020059 10.658797 -88.870436 84.680074 -96.767701 -3.979597 -9.526415 7.707447 0.111715 -0.487379 0.109445 6.447709 -62.739742 -3.362146 52.481768 86.546680 58.385916 -1.938768 -13.894517 0.502537 0.096583 0.316830 0.075508
-135.137598 51.732827 -58.068923 177.643598 -18.773284 -2.816503 -1.440150 11.489553 -0.113438 -0.111688 0.797723 0.008839 -0.165502 1.379757 0.078264 -1.322776 10.538147 0.315129 -2.385702 20.098451 -1.101945 -2.287670 -4.399458 -0.615289 6.867125 15.539754 12.509553 25.942971 -9.147354 -30.733283 138.950876 -54.932316 -178.806044 -1.089793 2.594047 -7.633896 -4.648389 15.242221 -15.557911 -21.993608 -1.838510 33.364174 -123.784786 -58.017812 169.372552 13.802200 2.537745 5.255033 -14.668646 -62.011135 10.602067 -88.894053 84.678281 -96.781911 -3.978355 -9.530424 7.726071 0.104482 -0.483094 0.089853 6.496720 -62.743558 -3.396438 52.641019 86.558622 58.535962 -1.947398 -13.886747 0.520537 0.079321 0.303295 0.093973
-135.148765 51.732582 -58.075354 177.656394 -18.766694 -2.848058 -1.438504 11.485548 -0.060919 -0.103777 0.803458 0.034682 -0.177569 1.377611 0.058592 -1.336666 10.544823 0.342697 -2.377918 20.139618 -1.096741 -2.287805 -4.377439 -0.634251 6.865551 15.547369 12.507403 25.948425 -9.155545 -30.744449 138.876098 -54.864320 -178.758732 -1.044890 2.562849 -7.754789 -4.644326 15.241392 -15.548866 -22.005545 -1.862344 33.342308 -123.701942 -57.975978 169.310828 13.798936 2.483783 5.286486 -14.659878 -62.007251 10.595922 -88.880583 84.678712 -96.749784 -3.984081 -9.527100 7.730301 0.106861 -0.484434 0.088688 6.592766 -62.762290 -3.447897 52.654794 86.586902 58.583915 -1.981674 -13.878473 0.542872 0.112066 0.299411 0.093875
